solid Exported from Blender-2.83.5
facet normal 0.000002 -0.000001 -1.000000
outer loop
vertex 0.067547 -0.018099 0.120000
vertex 0.055548 -0.021323 0.120000
vertex 0.058767 -0.009308 0.120000
endloop
endfacet
facet normal -0.000002 -0.000000 -1.000000
outer loop
vertex -0.069069 -0.010939 0.120000
vertex -0.059418 -0.003114 0.120000
vertex -0.057473 -0.015400 0.120000
endloop
endfacet
facet normal 0.000001 0.000000 -1.000000
outer loop
vertex 0.059418 0.003114 0.120000
vertex 0.069834 -0.003660 0.120000
vertex 0.058767 -0.009308 0.120000
endloop
endfacet
facet normal 0.000000 0.000000 -1.000000
outer loop
vertex -0.053015 -0.027012 0.120000
vertex -0.065285 -0.025061 0.120000
vertex -0.057473 -0.015400 0.120000
endloop
endfacet
facet normal 0.000000 0.000000 -1.000000
outer loop
vertex 0.069069 0.010939 0.120000
vertex 0.059418 0.003114 0.120000
vertex 0.057473 0.015400 0.120000
endloop
endfacet
facet normal 0.000000 -0.000001 -1.000000
outer loop
vertex -0.058648 -0.038087 0.120000
vertex -0.053015 -0.027012 0.120000
vertex -0.046240 -0.037445 0.120000
endloop
endfacet
facet normal 0.000002 0.000001 -1.000000
outer loop
vertex 0.065285 0.025061 0.120000
vertex 0.057473 0.015400 0.120000
vertex 0.053015 0.027012 0.120000
endloop
endfacet
facet normal 0.000000 -0.000001 -1.000000
outer loop
vertex -0.049448 -0.049448 0.120000
vertex -0.046240 -0.037445 0.120000
vertex -0.037445 -0.046240 0.120000
endloop
endfacet
facet normal 0.000000 0.000000 -1.000000
outer loop
vertex 0.058648 0.038087 0.120000
vertex 0.053015 0.027012 0.120000
vertex 0.046240 0.037445 0.120000
endloop
endfacet
facet normal 0.000001 0.000000 -1.000000
outer loop
vertex -0.038087 -0.058648 0.120000
vertex -0.037445 -0.046240 0.120000
vertex -0.027012 -0.053015 0.120000
endloop
endfacet
facet normal 0.000002 0.000001 -1.000000
outer loop
vertex 0.049448 0.049448 0.120000
vertex 0.046240 0.037445 0.120000
vertex 0.037445 0.046240 0.120000
endloop
endfacet
facet normal 0.000000 0.000000 -1.000000
outer loop
vertex -0.025061 -0.065285 0.120000
vertex -0.027012 -0.053015 0.120000
vertex -0.015400 -0.057473 0.120000
endloop
endfacet
facet normal 0.000002 0.000002 -1.000000
outer loop
vertex -0.009308 0.058767 0.120000
vertex -0.003660 0.069834 0.120000
vertex 0.003114 0.059418 0.120000
endloop
endfacet
facet normal -0.000001 0.000000 -1.000000
outer loop
vertex 0.038087 0.058648 0.120000
vertex 0.037445 0.046240 0.120000
vertex 0.027012 0.053015 0.120000
endloop
endfacet
facet normal 0.000001 -0.000002 -1.000000
outer loop
vertex -0.010939 -0.069069 0.120000
vertex -0.015400 -0.057473 0.120000
vertex -0.003114 -0.059418 0.120000
endloop
endfacet
facet normal -0.000000 0.000000 -1.000000
outer loop
vertex -0.018099 0.067547 0.120000
vertex -0.009308 0.058767 0.120000
vertex -0.021323 0.055548 0.120000
endloop
endfacet
facet normal 0.000001 0.000002 -1.000000
outer loop
vertex 0.025061 0.065285 0.120000
vertex 0.027012 0.053015 0.120000
vertex 0.015400 0.057473 0.120000
endloop
endfacet
facet normal -0.000001 -0.000002 -1.000000
outer loop
vertex 0.003660 -0.069834 0.120000
vertex -0.003114 -0.059418 0.120000
vertex 0.009308 -0.058767 0.120000
endloop
endfacet
facet normal 0.000000 0.000000 -1.000000
outer loop
vertex -0.031748 0.062308 0.120000
vertex -0.021323 0.055548 0.120000
vertex -0.032406 0.049901 0.120000
endloop
endfacet
facet normal 0.000000 -0.000002 -1.000000
outer loop
vertex 0.018099 -0.067547 0.120000
vertex 0.009308 -0.058767 0.120000
vertex 0.021323 -0.055548 0.120000
endloop
endfacet
facet normal -0.000001 0.000002 -1.000000
outer loop
vertex -0.044008 0.054346 0.120000
vertex -0.032406 0.049901 0.120000
vertex -0.042073 0.042073 0.120000
endloop
endfacet
facet normal 0.000000 0.000000 -1.000000
outer loop
vertex 0.031748 -0.062308 0.120000
vertex 0.021323 -0.055548 0.120000
vertex 0.032406 -0.049901 0.120000
endloop
endfacet
facet normal -0.000002 0.000001 -1.000000
outer loop
vertex -0.054346 0.044008 0.120000
vertex -0.042073 0.042073 0.120000
vertex -0.049901 0.032406 0.120000
endloop
endfacet
facet normal 0.000001 0.000000 -1.000000
outer loop
vertex 0.044008 -0.054346 0.120000
vertex 0.032406 -0.049901 0.120000
vertex 0.042073 -0.042073 0.120000
endloop
endfacet
facet normal -0.000002 0.000001 -1.000000
outer loop
vertex -0.062308 0.031748 0.120000
vertex -0.049901 0.032406 0.120000
vertex -0.055548 0.021323 0.120000
endloop
endfacet
facet normal 0.000000 0.000000 -1.000000
outer loop
vertex 0.054346 -0.044008 0.120000
vertex 0.042073 -0.042073 0.120000
vertex 0.049901 -0.032406 0.120000
endloop
endfacet
facet normal 0.000002 0.000000 -1.000000
outer loop
vertex -0.067547 0.018099 0.120000
vertex -0.055548 0.021323 0.120000
vertex -0.058767 0.009308 0.120000
endloop
endfacet
facet normal 0.000000 0.000000 -1.000000
outer loop
vertex 0.062308 -0.031748 0.120000
vertex 0.049901 -0.032406 0.120000
vertex 0.055548 -0.021323 0.120000
endloop
endfacet
facet normal -0.000003 0.000000 -1.000000
outer loop
vertex -0.069834 0.003660 0.120000
vertex -0.058767 0.009308 0.120000
vertex -0.059418 -0.003114 0.120000
endloop
endfacet
facet normal 0.000001 0.000002 -1.000000
outer loop
vertex 0.010939 0.069069 0.120000
vertex 0.015400 0.057473 0.120000
vertex 0.003114 0.059418 0.120000
endloop
endfacet
facet normal 0.000002 -0.000000 -1.000000
outer loop
vertex 0.058767 -0.009308 0.120000
vertex 0.069069 -0.010939 0.120000
vertex 0.067547 -0.018099 0.120000
endloop
endfacet
facet normal 0.000002 0.000003 -1.000000
outer loop
vertex 0.067547 -0.018099 0.120000
vertex 0.065285 -0.025061 0.120000
vertex 0.055548 -0.021323 0.120000
endloop
endfacet
facet normal -0.000003 -0.000000 -1.000000
outer loop
vertex -0.057473 -0.015400 0.120000
vertex -0.067547 -0.018099 0.120000
vertex -0.069069 -0.010939 0.120000
endloop
endfacet
facet normal 0.000002 -0.000003 -1.000000
outer loop
vertex -0.069069 -0.010939 0.120000
vertex -0.069834 -0.003660 0.120000
vertex -0.059418 -0.003114 0.120000
endloop
endfacet
facet normal 0.000000 0.000003 -1.000000
outer loop
vertex 0.069834 0.003660 0.120000
vertex 0.069834 -0.003660 0.120000
vertex 0.059418 0.003114 0.120000
endloop
endfacet
facet normal 0.000000 -0.000003 -1.000000
outer loop
vertex 0.069834 -0.003660 0.120000
vertex 0.069069 -0.010939 0.120000
vertex 0.058767 -0.009308 0.120000
endloop
endfacet
facet normal -0.000001 0.000000 -1.000000
outer loop
vertex -0.062308 -0.031748 0.120000
vertex -0.065285 -0.025061 0.120000
vertex -0.053015 -0.027012 0.120000
endloop
endfacet
facet normal -0.000002 0.000002 -1.000000
outer loop
vertex -0.065285 -0.025061 0.120000
vertex -0.067547 -0.018099 0.120000
vertex -0.057473 -0.015400 0.120000
endloop
endfacet
facet normal 0.000000 0.000000 -1.000000
outer loop
vertex 0.057473 0.015400 0.120000
vertex 0.067547 0.018099 0.120000
vertex 0.069069 0.010939 0.120000
endloop
endfacet
facet normal 0.000002 -0.000003 -1.000000
outer loop
vertex 0.069069 0.010939 0.120000
vertex 0.069834 0.003660 0.120000
vertex 0.059418 0.003114 0.120000
endloop
endfacet
facet normal -0.000002 0.000002 -1.000000
outer loop
vertex -0.046240 -0.037445 0.120000
vertex -0.054346 -0.044008 0.120000
vertex -0.058648 -0.038087 0.120000
endloop
endfacet
facet normal 0.000000 -0.000003 -1.000000
outer loop
vertex -0.058648 -0.038087 0.120000
vertex -0.062308 -0.031748 0.120000
vertex -0.053015 -0.027012 0.120000
endloop
endfacet
facet normal 0.000003 0.000001 -1.000000
outer loop
vertex 0.053015 0.027012 0.120000
vertex 0.062308 0.031748 0.120000
vertex 0.065285 0.025061 0.120000
endloop
endfacet
facet normal 0.000001 0.000003 -1.000000
outer loop
vertex 0.065285 0.025061 0.120000
vertex 0.067547 0.018099 0.120000
vertex 0.057473 0.015400 0.120000
endloop
endfacet
facet normal -0.000003 0.000002 -1.000000
outer loop
vertex -0.037445 -0.046240 0.120000
vertex -0.044008 -0.054346 0.120000
vertex -0.049448 -0.049448 0.120000
endloop
endfacet
facet normal 0.000002 -0.000002 -1.000000
outer loop
vertex -0.049448 -0.049448 0.120000
vertex -0.054346 -0.044008 0.120000
vertex -0.046240 -0.037445 0.120000
endloop
endfacet
facet normal 0.000000 0.000004 -1.000000
outer loop
vertex 0.046240 0.037445 0.120000
vertex 0.054346 0.044008 0.120000
vertex 0.058648 0.038087 0.120000
endloop
endfacet
facet normal 0.000003 -0.000002 -1.000000
outer loop
vertex 0.058648 0.038087 0.120000
vertex 0.062308 0.031748 0.120000
vertex 0.053015 0.027012 0.120000
endloop
endfacet
facet normal -0.000002 0.000000 -1.000000
outer loop
vertex -0.027012 -0.053015 0.120000
vertex -0.031748 -0.062308 0.120000
vertex -0.038087 -0.058648 0.120000
endloop
endfacet
facet normal -0.000002 0.000000 -1.000000
outer loop
vertex -0.038087 -0.058648 0.120000
vertex -0.044008 -0.054346 0.120000
vertex -0.037445 -0.046240 0.120000
endloop
endfacet
facet normal 0.000002 0.000002 -1.000000
outer loop
vertex 0.037445 0.046240 0.120000
vertex 0.044008 0.054346 0.120000
vertex 0.049448 0.049448 0.120000
endloop
endfacet
facet normal 0.000003 0.000001 -1.000000
outer loop
vertex 0.049448 0.049448 0.120000
vertex 0.054346 0.044008 0.120000
vertex 0.046240 0.037445 0.120000
endloop
endfacet
facet normal 0.000003 -0.000003 -1.000000
outer loop
vertex -0.015400 -0.057473 0.120000
vertex -0.018099 -0.067547 0.120000
vertex -0.025061 -0.065285 0.120000
endloop
endfacet
facet normal 0.000000 0.000000 -1.000000
outer loop
vertex -0.025061 -0.065285 0.120000
vertex -0.031748 -0.062308 0.120000
vertex -0.027012 -0.053015 0.120000
endloop
endfacet
facet normal 0.000000 0.000002 -1.000000
outer loop
vertex -0.010939 0.069069 0.120000
vertex -0.003660 0.069834 0.120000
vertex -0.009308 0.058767 0.120000
endloop
endfacet
facet normal 0.000000 0.000002 -1.000000
outer loop
vertex -0.003660 0.069834 0.120000
vertex 0.003660 0.069834 0.120000
vertex 0.003114 0.059418 0.120000
endloop
endfacet
facet normal 0.000001 0.000000 -1.000000
outer loop
vertex 0.027012 0.053015 0.120000
vertex 0.031748 0.062308 0.120000
vertex 0.038087 0.058648 0.120000
endloop
endfacet
facet normal 0.000005 -0.000000 -1.000000
outer loop
vertex 0.038087 0.058648 0.120000
vertex 0.044008 0.054346 0.120000
vertex 0.037445 0.046240 0.120000
endloop
endfacet
facet normal 0.000001 -0.000002 -1.000000
outer loop
vertex -0.003114 -0.059418 0.120000
vertex -0.003660 -0.069834 0.120000
vertex -0.010939 -0.069069 0.120000
endloop
endfacet
facet normal -0.000003 -0.000002 -1.000000
outer loop
vertex -0.010939 -0.069069 0.120000
vertex -0.018099 -0.067547 0.120000
vertex -0.015400 -0.057473 0.120000
endloop
endfacet
facet normal -0.000003 0.000001 -1.000000
outer loop
vertex -0.021323 0.055548 0.120000
vertex -0.025061 0.065285 0.120000
vertex -0.018099 0.067547 0.120000
endloop
endfacet
facet normal 0.000003 0.000003 -1.000000
outer loop
vertex -0.018099 0.067547 0.120000
vertex -0.010939 0.069069 0.120000
vertex -0.009308 0.058767 0.120000
endloop
endfacet
facet normal 0.000002 -0.000001 -1.000000
outer loop
vertex 0.015400 0.057473 0.120000
vertex 0.018099 0.067547 0.120000
vertex 0.025061 0.065285 0.120000
endloop
endfacet
facet normal -0.000003 0.000001 -1.000000
outer loop
vertex 0.025061 0.065285 0.120000
vertex 0.031748 0.062308 0.120000
vertex 0.027012 0.053015 0.120000
endloop
endfacet
facet normal 0.000002 -0.000002 -1.000000
outer loop
vertex 0.009308 -0.058767 0.120000
vertex 0.010939 -0.069069 0.120000
vertex 0.003660 -0.069834 0.120000
endloop
endfacet
facet normal 0.000000 -0.000002 -1.000000
outer loop
vertex 0.003660 -0.069834 0.120000
vertex -0.003660 -0.069834 0.120000
vertex -0.003114 -0.059418 0.120000
endloop
endfacet
facet normal -0.000002 0.000000 -1.000000
outer loop
vertex -0.032406 0.049901 0.120000
vertex -0.038087 0.058648 0.120000
vertex -0.031748 0.062308 0.120000
endloop
endfacet
facet normal 0.000003 0.000003 -1.000000
outer loop
vertex -0.031748 0.062308 0.120000
vertex -0.025061 0.065285 0.120000
vertex -0.021323 0.055548 0.120000
endloop
endfacet
facet normal -0.000002 -0.000001 -1.000000
outer loop
vertex 0.021323 -0.055548 0.120000
vertex 0.025061 -0.065285 0.120000
vertex 0.018099 -0.067547 0.120000
endloop
endfacet
facet normal 0.000000 -0.000002 -1.000000
outer loop
vertex 0.018099 -0.067547 0.120000
vertex 0.010939 -0.069069 0.120000
vertex 0.009308 -0.058767 0.120000
endloop
endfacet
facet normal -0.000002 0.000002 -1.000000
outer loop
vertex -0.042073 0.042073 0.120000
vertex -0.049448 0.049448 0.120000
vertex -0.044008 0.054346 0.120000
endloop
endfacet
facet normal -0.000003 -0.000002 -1.000000
outer loop
vertex -0.044008 0.054346 0.120000
vertex -0.038087 0.058648 0.120000
vertex -0.032406 0.049901 0.120000
endloop
endfacet
facet normal 0.000002 0.000000 -1.000000
outer loop
vertex 0.032406 -0.049901 0.120000
vertex 0.038087 -0.058648 0.120000
vertex 0.031748 -0.062308 0.120000
endloop
endfacet
facet normal -0.000003 0.000000 -1.000000
outer loop
vertex 0.031748 -0.062308 0.120000
vertex 0.025061 -0.065285 0.120000
vertex 0.021323 -0.055548 0.120000
endloop
endfacet
facet normal 0.000002 0.000003 -1.000000
outer loop
vertex -0.049901 0.032406 0.120000
vertex -0.058648 0.038087 0.120000
vertex -0.054346 0.044008 0.120000
endloop
endfacet
facet normal -0.000003 0.000001 -1.000000
outer loop
vertex -0.054346 0.044008 0.120000
vertex -0.049448 0.049448 0.120000
vertex -0.042073 0.042073 0.120000
endloop
endfacet
facet normal 0.000002 0.000001 -1.000000
outer loop
vertex 0.042073 -0.042073 0.120000
vertex 0.049448 -0.049448 0.120000
vertex 0.044008 -0.054346 0.120000
endloop
endfacet
facet normal 0.000000 0.000000 -1.000000
outer loop
vertex 0.044008 -0.054346 0.120000
vertex 0.038087 -0.058648 0.120000
vertex 0.032406 -0.049901 0.120000
endloop
endfacet
facet normal -0.000002 0.000001 -1.000000
outer loop
vertex -0.055548 0.021323 0.120000
vertex -0.065285 0.025061 0.120000
vertex -0.062308 0.031748 0.120000
endloop
endfacet
facet normal 0.000000 -0.000003 -1.000000
outer loop
vertex -0.062308 0.031748 0.120000
vertex -0.058648 0.038087 0.120000
vertex -0.049901 0.032406 0.120000
endloop
endfacet
facet normal 0.000002 0.000001 -1.000000
outer loop
vertex 0.049901 -0.032406 0.120000
vertex 0.058648 -0.038087 0.120000
vertex 0.054346 -0.044008 0.120000
endloop
endfacet
facet normal 0.000000 -0.000004 -1.000000
outer loop
vertex 0.054346 -0.044008 0.120000
vertex 0.049448 -0.049448 0.120000
vertex 0.042073 -0.042073 0.120000
endloop
endfacet
facet normal 0.000000 0.000000 -1.000000
outer loop
vertex -0.058767 0.009308 0.120000
vertex -0.069069 0.010939 0.120000
vertex -0.067547 0.018099 0.120000
endloop
endfacet
facet normal 0.000000 0.000004 -1.000000
outer loop
vertex -0.067547 0.018099 0.120000
vertex -0.065285 0.025061 0.120000
vertex -0.055548 0.021323 0.120000
endloop
endfacet
facet normal 0.000002 0.000000 -1.000000
outer loop
vertex 0.055548 -0.021323 0.120000
vertex 0.065285 -0.025061 0.120000
vertex 0.062308 -0.031748 0.120000
endloop
endfacet
facet normal 0.000000 -0.000004 -1.000000
outer loop
vertex 0.062308 -0.031748 0.120000
vertex 0.058648 -0.038087 0.120000
vertex 0.049901 -0.032406 0.120000
endloop
endfacet
facet normal 0.000003 0.000003 -1.000000
outer loop
vertex -0.059418 -0.003114 0.120000
vertex -0.069834 -0.003660 0.120000
vertex -0.069834 0.003660 0.120000
endloop
endfacet
facet normal 0.000000 -0.000003 -1.000000
outer loop
vertex -0.069834 0.003660 0.120000
vertex -0.069069 0.010939 0.120000
vertex -0.058767 0.009308 0.120000
endloop
endfacet
facet normal -0.000002 0.000002 -1.000000
outer loop
vertex 0.003114 0.059418 0.120000
vertex 0.003660 0.069834 0.120000
vertex 0.010939 0.069069 0.120000
endloop
endfacet
facet normal -0.000003 0.000001 -1.000000
outer loop
vertex 0.010939 0.069069 0.120000
vertex 0.018099 0.067547 0.120000
vertex 0.015400 0.057473 0.120000
endloop
endfacet
facet normal 0.000000 0.000000 -1.000000
outer loop
vertex 0.053015 0.027012 0.120000
vertex 0.044438 0.017058 0.120000
vertex 0.039921 0.025925 0.120000
endloop
endfacet
facet normal 0.000001 0.000000 -1.000000
outer loop
vertex 0.009308 -0.058767 0.120000
vertex 0.002491 -0.047535 0.120000
vertex 0.012320 -0.045978 0.120000
endloop
endfacet
facet normal -0.000002 0.000000 -1.000000
outer loop
vertex 0.057473 0.015400 0.120000
vertex 0.047014 0.007446 0.120000
vertex 0.044438 0.017058 0.120000
endloop
endfacet
facet normal 0.000000 0.000000 -1.000000
outer loop
vertex -0.046240 -0.037445 0.120000
vertex -0.039921 -0.025925 0.120000
vertex -0.033658 -0.033658 0.120000
endloop
endfacet
facet normal -0.000001 0.000000 -1.000000
outer loop
vertex -0.009308 0.058767 0.120000
vertex -0.002491 0.047535 0.120000
vertex -0.012320 0.045978 0.120000
endloop
endfacet
facet normal -0.000000 0.000000 -1.000000
outer loop
vertex -0.003114 -0.059418 0.120000
vertex -0.007446 -0.047014 0.120000
vertex 0.002491 -0.047535 0.120000
endloop
endfacet
facet normal 0.000000 0.000000 -1.000000
outer loop
vertex -0.059418 -0.003114 0.120000
vertex -0.047535 0.002491 0.120000
vertex -0.047014 -0.007446 0.120000
endloop
endfacet
facet normal 0.000000 0.000000 -1.000000
outer loop
vertex -0.049901 0.032406 0.120000
vertex -0.036992 0.029956 0.120000
vertex -0.042412 0.021610 0.120000
endloop
endfacet
facet normal 0.000002 0.000000 -1.000000
outer loop
vertex 0.058767 -0.009308 0.120000
vertex 0.045978 -0.012320 0.120000
vertex 0.047535 -0.002491 0.120000
endloop
endfacet
facet normal 0.000001 0.000000 -1.000000
outer loop
vertex -0.015400 -0.057473 0.120000
vertex -0.017058 -0.044438 0.120000
vertex -0.007446 -0.047014 0.120000
endloop
endfacet
facet normal 0.000001 0.000000 -1.000000
outer loop
vertex 0.003114 0.059418 0.120000
vertex 0.007446 0.047014 0.120000
vertex -0.002491 0.047535 0.120000
endloop
endfacet
facet normal -0.000001 0.000000 -1.000000
outer loop
vertex 0.032406 -0.049901 0.120000
vertex 0.021610 -0.042412 0.120000
vertex 0.029956 -0.036992 0.120000
endloop
endfacet
facet normal -0.000001 0.000000 -1.000000
outer loop
vertex 0.015400 0.057473 0.120000
vertex 0.017058 0.044438 0.120000
vertex 0.007446 0.047014 0.120000
endloop
endfacet
facet normal -0.000002 0.000000 -1.000000
outer loop
vertex 0.055548 -0.021323 0.120000
vertex 0.042412 -0.021610 0.120000
vertex 0.045978 -0.012320 0.120000
endloop
endfacet
facet normal 0.000000 0.000000 -1.000000
outer loop
vertex -0.058767 0.009308 0.120000
vertex -0.045978 0.012320 0.120000
vertex -0.047535 0.002491 0.120000
endloop
endfacet
facet normal -0.000002 0.000000 -1.000000
outer loop
vertex -0.053015 -0.027012 0.120000
vertex -0.044438 -0.017058 0.120000
vertex -0.039921 -0.025925 0.120000
endloop
endfacet
facet normal -0.000001 0.000000 -1.000000
outer loop
vertex -0.042073 0.042073 0.120000
vertex -0.029956 0.036992 0.120000
vertex -0.036992 0.029956 0.120000
endloop
endfacet
facet normal 0.000001 0.000000 -1.000000
outer loop
vertex -0.027012 -0.053015 0.120000
vertex -0.025925 -0.039921 0.120000
vertex -0.017058 -0.044438 0.120000
endloop
endfacet
facet normal 0.000000 0.000000 -1.000000
outer loop
vertex 0.027012 0.053015 0.120000
vertex 0.025925 0.039921 0.120000
vertex 0.017058 0.044438 0.120000
endloop
endfacet
facet normal 0.000001 0.000000 -1.000000
outer loop
vertex -0.037445 -0.046240 0.120000
vertex -0.033658 -0.033658 0.120000
vertex -0.025925 -0.039921 0.120000
endloop
endfacet
facet normal 0.000000 0.000000 -1.000000
outer loop
vertex -0.055548 0.021323 0.120000
vertex -0.042412 0.021610 0.120000
vertex -0.045978 0.012320 0.120000
endloop
endfacet
facet normal 0.000000 0.000000 -1.000000
outer loop
vertex 0.059418 0.003114 0.120000
vertex 0.047535 -0.002491 0.120000
vertex 0.047014 0.007446 0.120000
endloop
endfacet
facet normal 0.000001 0.000000 -1.000000
outer loop
vertex -0.032406 0.049901 0.120000
vertex -0.021610 0.042412 0.120000
vertex -0.029956 0.036992 0.120000
endloop
endfacet
facet normal 0.000000 0.000000 -1.000000
outer loop
vertex 0.037445 0.046240 0.120000
vertex 0.033658 0.033658 0.120000
vertex 0.025925 0.039921 0.120000
endloop
endfacet
facet normal -0.000001 0.000000 -1.000000
outer loop
vertex -0.021323 0.055548 0.120000
vertex -0.012320 0.045978 0.120000
vertex -0.021610 0.042412 0.120000
endloop
endfacet
facet normal 0.000000 0.000000 -1.000000
outer loop
vertex 0.049901 -0.032406 0.120000
vertex 0.036992 -0.029956 0.120000
vertex 0.042412 -0.021610 0.120000
endloop
endfacet
facet normal 0.000000 0.000000 -1.000000
outer loop
vertex -0.057473 -0.015400 0.120000
vertex -0.047014 -0.007446 0.120000
vertex -0.044438 -0.017058 0.120000
endloop
endfacet
facet normal 0.000000 0.000000 -1.000000
outer loop
vertex 0.046240 0.037445 0.120000
vertex 0.039921 0.025925 0.120000
vertex 0.033658 0.033658 0.120000
endloop
endfacet
facet normal 0.000001 0.000000 -1.000000
outer loop
vertex 0.021323 -0.055548 0.120000
vertex 0.012320 -0.045978 0.120000
vertex 0.021610 -0.042412 0.120000
endloop
endfacet
facet normal 0.000000 0.000000 -1.000000
outer loop
vertex 0.042073 -0.042073 0.120000
vertex 0.029956 -0.036992 0.120000
vertex 0.036992 -0.029956 0.120000
endloop
endfacet
facet normal -0.000001 0.000000 -1.000000
outer loop
vertex 0.053015 0.027012 0.120000
vertex 0.057473 0.015400 0.120000
vertex 0.044438 0.017058 0.120000
endloop
endfacet
facet normal 0.000000 0.000000 -1.000000
outer loop
vertex 0.009308 -0.058767 0.120000
vertex -0.003114 -0.059418 0.120000
vertex 0.002491 -0.047535 0.120000
endloop
endfacet
facet normal 0.000001 0.000000 -1.000000
outer loop
vertex 0.057473 0.015400 0.120000
vertex 0.059418 0.003114 0.120000
vertex 0.047014 0.007446 0.120000
endloop
endfacet
facet normal -0.000000 0.000000 -1.000000
outer loop
vertex -0.046240 -0.037445 0.120000
vertex -0.053015 -0.027012 0.120000
vertex -0.039921 -0.025925 0.120000
endloop
endfacet
facet normal 0.000000 0.000000 -1.000000
outer loop
vertex -0.009308 0.058767 0.120000
vertex 0.003114 0.059418 0.120000
vertex -0.002491 0.047535 0.120000
endloop
endfacet
facet normal 0.000000 0.000000 -1.000000
outer loop
vertex -0.003114 -0.059418 0.120000
vertex -0.015400 -0.057473 0.120000
vertex -0.007446 -0.047014 0.120000
endloop
endfacet
facet normal -0.000001 0.000000 -1.000000
outer loop
vertex -0.059418 -0.003114 0.120000
vertex -0.058767 0.009308 0.120000
vertex -0.047535 0.002491 0.120000
endloop
endfacet
facet normal 0.000002 0.000000 -1.000000
outer loop
vertex -0.049901 0.032406 0.120000
vertex -0.042073 0.042073 0.120000
vertex -0.036992 0.029956 0.120000
endloop
endfacet
facet normal 0.000000 0.000000 -1.000000
outer loop
vertex 0.058767 -0.009308 0.120000
vertex 0.055548 -0.021323 0.120000
vertex 0.045978 -0.012320 0.120000
endloop
endfacet
facet normal 0.000000 0.000000 -1.000000
outer loop
vertex -0.015400 -0.057473 0.120000
vertex -0.027012 -0.053015 0.120000
vertex -0.017058 -0.044438 0.120000
endloop
endfacet
facet normal 0.000000 0.000000 -1.000000
outer loop
vertex 0.003114 0.059418 0.120000
vertex 0.015400 0.057473 0.120000
vertex 0.007446 0.047014 0.120000
endloop
endfacet
facet normal 0.000000 0.000000 -1.000000
outer loop
vertex 0.032406 -0.049901 0.120000
vertex 0.021323 -0.055548 0.120000
vertex 0.021610 -0.042412 0.120000
endloop
endfacet
facet normal 0.000000 0.000000 -1.000000
outer loop
vertex 0.015400 0.057473 0.120000
vertex 0.027012 0.053015 0.120000
vertex 0.017058 0.044438 0.120000
endloop
endfacet
facet normal 0.000000 0.000000 -1.000000
outer loop
vertex 0.055548 -0.021323 0.120000
vertex 0.049901 -0.032406 0.120000
vertex 0.042412 -0.021610 0.120000
endloop
endfacet
facet normal -0.000002 0.000000 -1.000000
outer loop
vertex -0.058767 0.009308 0.120000
vertex -0.055548 0.021323 0.120000
vertex -0.045978 0.012320 0.120000
endloop
endfacet
facet normal 0.000001 0.000000 -1.000000
outer loop
vertex -0.053015 -0.027012 0.120000
vertex -0.057473 -0.015400 0.120000
vertex -0.044438 -0.017058 0.120000
endloop
endfacet
facet normal 0.000000 0.000000 -1.000000
outer loop
vertex -0.042073 0.042073 0.120000
vertex -0.032406 0.049901 0.120000
vertex -0.029956 0.036992 0.120000
endloop
endfacet
facet normal -0.000001 0.000000 -1.000000
outer loop
vertex -0.027012 -0.053015 0.120000
vertex -0.037445 -0.046240 0.120000
vertex -0.025925 -0.039921 0.120000
endloop
endfacet
facet normal 0.000000 0.000000 -1.000000
outer loop
vertex 0.027012 0.053015 0.120000
vertex 0.037445 0.046240 0.120000
vertex 0.025925 0.039921 0.120000
endloop
endfacet
facet normal -0.000001 0.000000 -1.000000
outer loop
vertex -0.037445 -0.046240 0.120000
vertex -0.046240 -0.037445 0.120000
vertex -0.033658 -0.033658 0.120000
endloop
endfacet
facet normal 0.000000 0.000000 -1.000000
outer loop
vertex -0.055548 0.021323 0.120000
vertex -0.049901 0.032406 0.120000
vertex -0.042412 0.021610 0.120000
endloop
endfacet
facet normal -0.000001 0.000000 -1.000000
outer loop
vertex 0.059418 0.003114 0.120000
vertex 0.058767 -0.009308 0.120000
vertex 0.047535 -0.002491 0.120000
endloop
endfacet
facet normal 0.000000 0.000000 -1.000000
outer loop
vertex -0.032406 0.049901 0.120000
vertex -0.021323 0.055548 0.120000
vertex -0.021610 0.042412 0.120000
endloop
endfacet
facet normal -0.000001 0.000000 -1.000000
outer loop
vertex 0.037445 0.046240 0.120000
vertex 0.046240 0.037445 0.120000
vertex 0.033658 0.033658 0.120000
endloop
endfacet
facet normal 0.000000 0.000000 -1.000000
outer loop
vertex -0.021323 0.055548 0.120000
vertex -0.009308 0.058767 0.120000
vertex -0.012320 0.045978 0.120000
endloop
endfacet
facet normal 0.000000 0.000000 -1.000000
outer loop
vertex 0.049901 -0.032406 0.120000
vertex 0.042073 -0.042073 0.120000
vertex 0.036992 -0.029956 0.120000
endloop
endfacet
facet normal 0.000000 0.000000 -1.000000
outer loop
vertex -0.057473 -0.015400 0.120000
vertex -0.059418 -0.003114 0.120000
vertex -0.047014 -0.007446 0.120000
endloop
endfacet
facet normal 0.000000 0.000000 -1.000000
outer loop
vertex 0.046240 0.037445 0.120000
vertex 0.053015 0.027012 0.120000
vertex 0.039921 0.025925 0.120000
endloop
endfacet
facet normal 0.000000 0.000000 -1.000000
outer loop
vertex 0.021323 -0.055548 0.120000
vertex 0.009308 -0.058767 0.120000
vertex 0.012320 -0.045978 0.120000
endloop
endfacet
facet normal 0.000000 0.000000 -1.000000
outer loop
vertex 0.042073 -0.042073 0.120000
vertex 0.032406 -0.049901 0.120000
vertex 0.029956 -0.036992 0.120000
endloop
endfacet
facet normal 0.000000 0.000000 -1.000000
outer loop
vertex -0.005585 -0.035260 0.120000
vertex -0.017058 -0.044438 0.120000
vertex -0.019444 -0.029941 0.120000
endloop
endfacet
facet normal 0.000000 0.000000 -1.000000
outer loop
vertex 0.012794 0.033329 0.120000
vertex 0.025925 0.039921 0.120000
vertex 0.025244 0.025244 0.120000
endloop
endfacet
facet normal 0.000001 0.000000 -1.000000
outer loop
vertex 0.025244 0.025244 0.120000
vertex 0.039921 0.025925 0.120000
vertex 0.033329 0.012794 0.120000
endloop
endfacet
facet normal -0.000001 0.000000 -1.000000
outer loop
vertex -0.019444 -0.029941 0.120000
vertex -0.033658 -0.033658 0.120000
vertex -0.029941 -0.019444 0.120000
endloop
endfacet
facet normal 0.000000 0.000000 -1.000000
outer loop
vertex 0.033329 0.012794 0.120000
vertex 0.047014 0.007446 0.120000
vertex 0.035651 -0.001868 0.120000
endloop
endfacet
facet normal 0.000000 0.000000 -1.000000
outer loop
vertex -0.029941 -0.019444 0.120000
vertex -0.044438 -0.017058 0.120000
vertex -0.035260 -0.005585 0.120000
endloop
endfacet
facet normal -0.000000 0.000000 -1.000000
outer loop
vertex 0.035651 -0.001868 0.120000
vertex 0.045978 -0.012320 0.120000
vertex 0.031809 -0.016207 0.120000
endloop
endfacet
facet normal 0.000000 0.000000 -1.000000
outer loop
vertex -0.035260 -0.005585 0.120000
vertex -0.047535 0.002491 0.120000
vertex -0.034484 0.009240 0.120000
endloop
endfacet
facet normal 0.000000 0.000000 -1.000000
outer loop
vertex 0.031809 -0.016207 0.120000
vertex 0.036992 -0.029956 0.120000
vertex 0.022467 -0.027744 0.120000
endloop
endfacet
facet normal -0.000000 0.000000 -1.000000
outer loop
vertex -0.034484 0.009240 0.120000
vertex -0.042412 0.021610 0.120000
vertex -0.027744 0.022467 0.120000
endloop
endfacet
facet normal 0.000000 0.000000 -1.000000
outer loop
vertex 0.022467 -0.027744 0.120000
vertex 0.021610 -0.042412 0.120000
vertex 0.009240 -0.034484 0.120000
endloop
endfacet
facet normal 0.000001 0.000000 -1.000000
outer loop
vertex -0.027744 0.022467 0.120000
vertex -0.029956 0.036992 0.120000
vertex -0.016207 0.031809 0.120000
endloop
endfacet
facet normal 0.000000 0.000000 -1.000000
outer loop
vertex 0.009240 -0.034484 0.120000
vertex 0.002491 -0.047535 0.120000
vertex -0.005585 -0.035260 0.120000
endloop
endfacet
facet normal 0.000000 0.000000 -1.000000
outer loop
vertex -0.016207 0.031809 0.120000
vertex -0.012320 0.045978 0.120000
vertex -0.001868 0.035651 0.120000
endloop
endfacet
facet normal -0.000001 0.000000 -1.000000
outer loop
vertex 0.007446 0.047014 0.120000
vertex 0.012794 0.033329 0.120000
vertex -0.001868 0.035651 0.120000
endloop
endfacet
facet normal 0.000000 0.000000 -1.000000
outer loop
vertex -0.007446 -0.047014 0.120000
vertex -0.017058 -0.044438 0.120000
vertex -0.005585 -0.035260 0.120000
endloop
endfacet
facet normal 0.000000 0.000000 -1.000000
outer loop
vertex -0.017058 -0.044438 0.120000
vertex -0.025925 -0.039921 0.120000
vertex -0.019444 -0.029941 0.120000
endloop
endfacet
facet normal 0.000000 0.000000 -1.000000
outer loop
vertex 0.017058 0.044438 0.120000
vertex 0.025925 0.039921 0.120000
vertex 0.012794 0.033329 0.120000
endloop
endfacet
facet normal 0.000000 0.000000 -1.000000
outer loop
vertex 0.025925 0.039921 0.120000
vertex 0.033658 0.033658 0.120000
vertex 0.025244 0.025244 0.120000
endloop
endfacet
facet normal -0.000000 0.000000 -1.000000
outer loop
vertex 0.033658 0.033658 0.120000
vertex 0.039921 0.025925 0.120000
vertex 0.025244 0.025244 0.120000
endloop
endfacet
facet normal -0.000001 0.000000 -1.000000
outer loop
vertex 0.039921 0.025925 0.120000
vertex 0.044438 0.017058 0.120000
vertex 0.033329 0.012794 0.120000
endloop
endfacet
facet normal -0.000001 0.000000 -1.000000
outer loop
vertex -0.025925 -0.039921 0.120000
vertex -0.033658 -0.033658 0.120000
vertex -0.019444 -0.029941 0.120000
endloop
endfacet
facet normal 0.000000 0.000000 -1.000000
outer loop
vertex -0.033658 -0.033658 0.120000
vertex -0.039921 -0.025925 0.120000
vertex -0.029941 -0.019444 0.120000
endloop
endfacet
facet normal 0.000001 0.000000 -1.000000
outer loop
vertex 0.044438 0.017058 0.120000
vertex 0.047014 0.007446 0.120000
vertex 0.033329 0.012794 0.120000
endloop
endfacet
facet normal 0.000000 0.000000 -1.000000
outer loop
vertex 0.047014 0.007446 0.120000
vertex 0.047535 -0.002491 0.120000
vertex 0.035651 -0.001868 0.120000
endloop
endfacet
facet normal 0.000001 0.000000 -1.000000
outer loop
vertex -0.039921 -0.025925 0.120000
vertex -0.044438 -0.017058 0.120000
vertex -0.029941 -0.019444 0.120000
endloop
endfacet
facet normal -0.000001 0.000000 -1.000000
outer loop
vertex -0.044438 -0.017058 0.120000
vertex -0.047014 -0.007446 0.120000
vertex -0.035260 -0.005585 0.120000
endloop
endfacet
facet normal 0.000000 0.000000 -1.000000
outer loop
vertex 0.047535 -0.002491 0.120000
vertex 0.045978 -0.012320 0.120000
vertex 0.035651 -0.001868 0.120000
endloop
endfacet
facet normal 0.000000 0.000000 -1.000000
outer loop
vertex 0.045978 -0.012320 0.120000
vertex 0.042412 -0.021610 0.120000
vertex 0.031809 -0.016207 0.120000
endloop
endfacet
facet normal 0.000000 0.000000 -1.000000
outer loop
vertex -0.047014 -0.007446 0.120000
vertex -0.047535 0.002491 0.120000
vertex -0.035260 -0.005585 0.120000
endloop
endfacet
facet normal -0.000000 0.000000 -1.000000
outer loop
vertex -0.047535 0.002491 0.120000
vertex -0.045978 0.012320 0.120000
vertex -0.034484 0.009240 0.120000
endloop
endfacet
facet normal 0.000000 0.000000 -1.000000
outer loop
vertex 0.042412 -0.021610 0.120000
vertex 0.036992 -0.029956 0.120000
vertex 0.031809 -0.016207 0.120000
endloop
endfacet
facet normal 0.000000 0.000000 -1.000000
outer loop
vertex 0.036992 -0.029956 0.120000
vertex 0.029956 -0.036992 0.120000
vertex 0.022467 -0.027744 0.120000
endloop
endfacet
facet normal 0.000002 0.000000 -1.000000
outer loop
vertex -0.045978 0.012320 0.120000
vertex -0.042412 0.021610 0.120000
vertex -0.034484 0.009240 0.120000
endloop
endfacet
facet normal -0.000001 0.000000 -1.000000
outer loop
vertex -0.042412 0.021610 0.120000
vertex -0.036992 0.029956 0.120000
vertex -0.027744 0.022467 0.120000
endloop
endfacet
facet normal 0.000000 0.000000 -1.000000
outer loop
vertex 0.029956 -0.036992 0.120000
vertex 0.021610 -0.042412 0.120000
vertex 0.022467 -0.027744 0.120000
endloop
endfacet
facet normal 0.000000 0.000000 -1.000000
outer loop
vertex 0.021610 -0.042412 0.120000
vertex 0.012320 -0.045978 0.120000
vertex 0.009240 -0.034484 0.120000
endloop
endfacet
facet normal 0.000000 0.000000 -1.000000
outer loop
vertex -0.036992 0.029956 0.120000
vertex -0.029956 0.036992 0.120000
vertex -0.027744 0.022467 0.120000
endloop
endfacet
facet normal -0.000002 0.000000 -1.000000
outer loop
vertex -0.029956 0.036992 0.120000
vertex -0.021610 0.042412 0.120000
vertex -0.016207 0.031809 0.120000
endloop
endfacet
facet normal 0.000000 0.000000 -1.000000
outer loop
vertex 0.012320 -0.045978 0.120000
vertex 0.002491 -0.047535 0.120000
vertex 0.009240 -0.034484 0.120000
endloop
endfacet
facet normal 0.000000 0.000000 -1.000000
outer loop
vertex 0.002491 -0.047535 0.120000
vertex -0.007446 -0.047014 0.120000
vertex -0.005585 -0.035260 0.120000
endloop
endfacet
facet normal 0.000002 0.000000 -1.000000
outer loop
vertex -0.021610 0.042412 0.120000
vertex -0.012320 0.045978 0.120000
vertex -0.016207 0.031809 0.120000
endloop
endfacet
facet normal -0.000002 0.000000 -1.000000
outer loop
vertex -0.012320 0.045978 0.120000
vertex -0.002491 0.047535 0.120000
vertex -0.001868 0.035651 0.120000
endloop
endfacet
facet normal 0.000001 0.000000 -1.000000
outer loop
vertex -0.001868 0.035651 0.120000
vertex -0.002491 0.047535 0.120000
vertex 0.007446 0.047014 0.120000
endloop
endfacet
facet normal 0.000000 0.000000 -1.000000
outer loop
vertex 0.007446 0.047014 0.120000
vertex 0.017058 0.044438 0.120000
vertex 0.012794 0.033329 0.120000
endloop
endfacet
facet normal -0.000004 0.000000 -1.000000
outer loop
vertex 0.031809 -0.016207 0.120000
vertex 0.018311 -0.014828 0.120000
vertex 0.022759 -0.006098 0.120000
endloop
endfacet
facet normal 0.000001 0.000000 -1.000000
outer loop
vertex -0.027744 0.022467 0.120000
vertex -0.014828 0.018311 0.120000
vertex -0.020994 0.010697 0.120000
endloop
endfacet
facet normal 0.000000 0.000000 -1.000000
outer loop
vertex 0.022467 -0.027744 0.120000
vertex 0.010697 -0.020994 0.120000
vertex 0.018311 -0.014828 0.120000
endloop
endfacet
facet normal 0.000000 0.000000 -1.000000
outer loop
vertex -0.016207 0.031809 0.120000
vertex -0.006098 0.022759 0.120000
vertex -0.014828 0.018311 0.120000
endloop
endfacet
facet normal -0.000001 0.000000 -1.000000
outer loop
vertex 0.009240 -0.034484 0.120000
vertex 0.001233 -0.023530 0.120000
vertex 0.010697 -0.020994 0.120000
endloop
endfacet
facet normal 0.000000 0.000000 -1.000000
outer loop
vertex -0.001868 0.035651 0.120000
vertex 0.003686 0.023272 0.120000
vertex -0.006098 0.022759 0.120000
endloop
endfacet
facet normal -0.000001 0.000000 -1.000000
outer loop
vertex -0.005585 -0.035260 0.120000
vertex -0.008444 -0.021997 0.120000
vertex 0.001233 -0.023530 0.120000
endloop
endfacet
facet normal 0.000000 0.000000 -1.000000
outer loop
vertex 0.012794 0.033329 0.120000
vertex 0.012833 0.019761 0.120000
vertex 0.003686 0.023272 0.120000
endloop
endfacet
facet normal -0.000001 0.000000 -1.000000
outer loop
vertex -0.019444 -0.029941 0.120000
vertex -0.016661 -0.016661 0.120000
vertex -0.008444 -0.021997 0.120000
endloop
endfacet
facet normal 0.000001 0.000000 -1.000000
outer loop
vertex 0.025244 0.025244 0.120000
vertex 0.019761 0.012833 0.120000
vertex 0.012833 0.019761 0.120000
endloop
endfacet
facet normal 0.000000 0.000000 -1.000000
outer loop
vertex -0.029941 -0.019444 0.120000
vertex -0.021997 -0.008444 0.120000
vertex -0.016661 -0.016661 0.120000
endloop
endfacet
facet normal 0.000002 0.000000 -1.000000
outer loop
vertex 0.033329 0.012794 0.120000
vertex 0.023272 0.003686 0.120000
vertex 0.019761 0.012833 0.120000
endloop
endfacet
facet normal 0.000000 0.000000 -1.000000
outer loop
vertex -0.035260 -0.005585 0.120000
vertex -0.023530 0.001233 0.120000
vertex -0.021997 -0.008444 0.120000
endloop
endfacet
facet normal -0.000002 0.000000 -1.000000
outer loop
vertex 0.035651 -0.001868 0.120000
vertex 0.022759 -0.006098 0.120000
vertex 0.023272 0.003686 0.120000
endloop
endfacet
facet normal 0.000000 0.000000 -1.000000
outer loop
vertex -0.034484 0.009240 0.120000
vertex -0.020994 0.010697 0.120000
vertex -0.023530 0.001233 0.120000
endloop
endfacet
facet normal 0.000000 0.000000 -1.000000
outer loop
vertex 0.031809 -0.016207 0.120000
vertex 0.022467 -0.027744 0.120000
vertex 0.018311 -0.014828 0.120000
endloop
endfacet
facet normal -0.000001 0.000000 -1.000000
outer loop
vertex -0.027744 0.022467 0.120000
vertex -0.016207 0.031809 0.120000
vertex -0.014828 0.018311 0.120000
endloop
endfacet
facet normal 0.000001 0.000000 -1.000000
outer loop
vertex 0.022467 -0.027744 0.120000
vertex 0.009240 -0.034484 0.120000
vertex 0.010697 -0.020994 0.120000
endloop
endfacet
facet normal 0.000000 0.000000 -1.000000
outer loop
vertex -0.016207 0.031809 0.120000
vertex -0.001868 0.035651 0.120000
vertex -0.006098 0.022759 0.120000
endloop
endfacet
facet normal 0.000001 0.000000 -1.000000
outer loop
vertex 0.009240 -0.034484 0.120000
vertex -0.005585 -0.035260 0.120000
vertex 0.001233 -0.023530 0.120000
endloop
endfacet
facet normal -0.000001 0.000000 -1.000000
outer loop
vertex -0.001868 0.035651 0.120000
vertex 0.012794 0.033329 0.120000
vertex 0.003686 0.023272 0.120000
endloop
endfacet
facet normal 0.000000 0.000000 -1.000000
outer loop
vertex -0.005585 -0.035260 0.120000
vertex -0.019444 -0.029941 0.120000
vertex -0.008444 -0.021997 0.120000
endloop
endfacet
facet normal 0.000000 0.000000 -1.000000
outer loop
vertex 0.012794 0.033329 0.120000
vertex 0.025244 0.025244 0.120000
vertex 0.012833 0.019761 0.120000
endloop
endfacet
facet normal 0.000001 0.000000 -1.000000
outer loop
vertex -0.019444 -0.029941 0.120000
vertex -0.029941 -0.019444 0.120000
vertex -0.016661 -0.016661 0.120000
endloop
endfacet
facet normal -0.000001 0.000000 -1.000000
outer loop
vertex 0.025244 0.025244 0.120000
vertex 0.033329 0.012794 0.120000
vertex 0.019761 0.012833 0.120000
endloop
endfacet
facet normal 0.000001 0.000000 -1.000000
outer loop
vertex -0.029941 -0.019444 0.120000
vertex -0.035260 -0.005585 0.120000
vertex -0.021997 -0.008444 0.120000
endloop
endfacet
facet normal -0.000001 0.000000 -1.000000
outer loop
vertex 0.033329 0.012794 0.120000
vertex 0.035651 -0.001868 0.120000
vertex 0.023272 0.003686 0.120000
endloop
endfacet
facet normal -0.000001 0.000000 -1.000000
outer loop
vertex -0.035260 -0.005585 0.120000
vertex -0.034484 0.009240 0.120000
vertex -0.023530 0.001233 0.120000
endloop
endfacet
facet normal 0.000003 0.000000 -1.000000
outer loop
vertex 0.035651 -0.001868 0.120000
vertex 0.031809 -0.016207 0.120000
vertex 0.022759 -0.006098 0.120000
endloop
endfacet
facet normal 0.000000 0.000000 -1.000000
outer loop
vertex -0.034484 0.009240 0.120000
vertex -0.027744 0.022467 0.120000
vertex -0.020994 0.010697 0.120000
endloop
endfacet
facet normal 0.000000 0.000000 -1.000000
outer loop
vertex -0.016661 -0.016661 0.120000
vertex -0.001843 -0.011636 0.120000
vertex -0.008444 -0.021997 0.120000
endloop
endfacet
facet normal 0.000001 0.000000 -1.000000
outer loop
vertex 0.010497 -0.005348 0.120000
vertex 0.008330 0.008330 0.120000
vertex 0.023272 0.003686 0.120000
endloop
endfacet
facet normal 0.000000 0.000000 -1.000000
outer loop
vertex -0.005348 0.010497 0.120000
vertex -0.011636 -0.001843 0.120000
vertex -0.020994 0.010697 0.120000
endloop
endfacet
facet normal -0.000001 0.000000 -1.000000
outer loop
vertex -0.001843 -0.011636 0.120000
vertex 0.010497 -0.005348 0.120000
vertex 0.010697 -0.020994 0.120000
endloop
endfacet
facet normal 0.000001 0.000000 -1.000000
outer loop
vertex 0.008330 0.008330 0.120000
vertex -0.005348 0.010497 0.120000
vertex 0.003686 0.023272 0.120000
endloop
endfacet
facet normal 0.000001 0.000000 -1.000000
outer loop
vertex -0.001843 -0.011636 0.120000
vertex 0.001233 -0.023530 0.120000
vertex -0.008444 -0.021997 0.120000
endloop
endfacet
facet normal 0.000000 0.000000 -1.000000
outer loop
vertex -0.001843 -0.011636 0.120000
vertex -0.016661 -0.016661 0.120000
vertex -0.011636 -0.001843 0.120000
endloop
endfacet
facet normal 0.000001 0.000000 -1.000000
outer loop
vertex -0.016661 -0.016661 0.120000
vertex -0.021997 -0.008444 0.120000
vertex -0.011636 -0.001843 0.120000
endloop
endfacet
facet normal -0.000001 0.000000 -1.000000
outer loop
vertex 0.012833 0.019761 0.120000
vertex 0.019761 0.012833 0.120000
vertex 0.008330 0.008330 0.120000
endloop
endfacet
facet normal -0.000001 0.000000 -1.000000
outer loop
vertex 0.019761 0.012833 0.120000
vertex 0.023272 0.003686 0.120000
vertex 0.008330 0.008330 0.120000
endloop
endfacet
facet normal 0.000001 0.000000 -1.000000
outer loop
vertex 0.023272 0.003686 0.120000
vertex 0.022759 -0.006098 0.120000
vertex 0.010497 -0.005348 0.120000
endloop
endfacet
facet normal 0.000001 0.000000 -1.000000
outer loop
vertex -0.021997 -0.008444 0.120000
vertex -0.023530 0.001233 0.120000
vertex -0.011636 -0.001843 0.120000
endloop
endfacet
facet normal 0.000000 0.000000 -1.000000
outer loop
vertex -0.023530 0.001233 0.120000
vertex -0.020994 0.010697 0.120000
vertex -0.011636 -0.001843 0.120000
endloop
endfacet
facet normal 0.000000 0.000000 -1.000000
outer loop
vertex -0.020994 0.010697 0.120000
vertex -0.014828 0.018311 0.120000
vertex -0.005348 0.010497 0.120000
endloop
endfacet
facet normal 0.000002 0.000000 -1.000000
outer loop
vertex 0.022759 -0.006098 0.120000
vertex 0.018311 -0.014828 0.120000
vertex 0.010497 -0.005348 0.120000
endloop
endfacet
facet normal 0.000002 0.000000 -1.000000
outer loop
vertex 0.018311 -0.014828 0.120000
vertex 0.010697 -0.020994 0.120000
vertex 0.010497 -0.005348 0.120000
endloop
endfacet
facet normal 0.000000 0.000000 -1.000000
outer loop
vertex 0.010697 -0.020994 0.120000
vertex 0.001233 -0.023530 0.120000
vertex -0.001843 -0.011636 0.120000
endloop
endfacet
facet normal 0.000000 0.000000 -1.000000
outer loop
vertex -0.014828 0.018311 0.120000
vertex -0.006098 0.022759 0.120000
vertex -0.005348 0.010497 0.120000
endloop
endfacet
facet normal 0.000000 0.000000 -1.000000
outer loop
vertex -0.006098 0.022759 0.120000
vertex 0.003686 0.023272 0.120000
vertex -0.005348 0.010497 0.120000
endloop
endfacet
facet normal 0.000000 0.000000 -1.000000
outer loop
vertex 0.003686 0.023272 0.120000
vertex 0.012833 0.019761 0.120000
vertex 0.008330 0.008330 0.120000
endloop
endfacet
endsolid Exported from Blender-2.83.5
